<?xml version="1.0" encoding="UTF-8" standalone="no"?><svg xmlns="http://www.w3.org/2000/svg" xmlns:xlink="http://www.w3.org/1999/xlink" clip-rule="evenodd" stroke-miterlimit="4.00" viewBox="0 0 1024 768"><desc>SVG generated by Keynote</desc><defs></defs><g transform="matrix(1.00, 0.00, -0.00, -1.00, 0.0, 768.0)"><path d="M 0.0 768.0 L 1024.0 768.0 L 1024.0 0.0 L 0.0 0.0 Z M 0.0 768.0 " fill="#000000"></path><text xml:space="preserve" font-family="SourceCodePro-Regular" font-size="28.5" fill="#FEFFFF" transform="matrix(1.00, 0.00, -0.00, -1.00, 79.0, 530.3)">•</text><text xml:space="preserve" font-family="SourceCodePro-Regular" font-size="38.0" fill="#FEFFFF" transform="matrix(1.00, 0.00, -0.00, -1.00, 114.0, 527.0)">h</text><text xml:space="preserve" font-family="SourceCodePro-Regular" font-size="38.0" fill="#FEFFFF" transform="matrix(1.00, 0.00, -0.00, -1.00, 136.8, 527.0)">t</text><text xml:space="preserve" font-family="SourceCodePro-Regular" font-size="38.0" fill="#FEFFFF" transform="matrix(1.00, 0.00, -0.00, -1.00, 159.6, 527.0)">t</text><text xml:space="preserve" font-family="SourceCodePro-Regular" font-size="38.0" fill="#FEFFFF" transform="matrix(1.00, 0.00, -0.00, -1.00, 182.4, 527.0)">p</text><text xml:space="preserve" font-family="SourceCodePro-Regular" font-size="38.0" fill="#FEFFFF" transform="matrix(1.00, 0.00, -0.00, -1.00, 205.2, 527.0)">s</text><text xml:space="preserve" font-family="SourceCodePro-Regular" font-size="38.0" fill="#FEFFFF" transform="matrix(1.00, 0.00, -0.00, -1.00, 228.0, 527.0)">:</text><text xml:space="preserve" font-family="SourceCodePro-Regular" font-size="38.0" fill="#FEFFFF" transform="matrix(1.00, 0.00, -0.00, -1.00, 250.8, 527.0)">/</text><text xml:space="preserve" font-family="SourceCodePro-Regular" font-size="38.0" fill="#FEFFFF" transform="matrix(1.00, 0.00, -0.00, -1.00, 273.6, 527.0)">/</text><text xml:space="preserve" font-family="SourceCodePro-Regular" font-size="38.0" fill="#FEFFFF" transform="matrix(1.00, 0.00, -0.00, -1.00, 296.4, 527.0)">d</text><text xml:space="preserve" font-family="SourceCodePro-Regular" font-size="38.0" fill="#FEFFFF" transform="matrix(1.00, 0.00, -0.00, -1.00, 319.2, 527.0)">o</text><text xml:space="preserve" font-family="SourceCodePro-Regular" font-size="38.0" fill="#FEFFFF" transform="matrix(1.00, 0.00, -0.00, -1.00, 342.0, 527.0)">c</text><text xml:space="preserve" font-family="SourceCodePro-Regular" font-size="38.0" fill="#FEFFFF" transform="matrix(1.00, 0.00, -0.00, -1.00, 364.8, 527.0)">s</text><text xml:space="preserve" font-family="SourceCodePro-Regular" font-size="38.0" fill="#FEFFFF" transform="matrix(1.00, 0.00, -0.00, -1.00, 387.6, 527.0)">.</text><text xml:space="preserve" font-family="SourceCodePro-Regular" font-size="38.0" fill="#FEFFFF" transform="matrix(1.00, 0.00, -0.00, -1.00, 410.4, 527.0)">a</text><text xml:space="preserve" font-family="SourceCodePro-Regular" font-size="38.0" fill="#FEFFFF" transform="matrix(1.00, 0.00, -0.00, -1.00, 433.2, 527.0)">n</text><text xml:space="preserve" font-family="SourceCodePro-Regular" font-size="38.0" fill="#FEFFFF" transform="matrix(1.00, 0.00, -0.00, -1.00, 456.0, 527.0)">g</text><text xml:space="preserve" font-family="SourceCodePro-Regular" font-size="38.0" fill="#FEFFFF" transform="matrix(1.00, 0.00, -0.00, -1.00, 478.8, 527.0)">u</text><text xml:space="preserve" font-family="SourceCodePro-Regular" font-size="38.0" fill="#FEFFFF" transform="matrix(1.00, 0.00, -0.00, -1.00, 501.6, 527.0)">l</text><text xml:space="preserve" font-family="SourceCodePro-Regular" font-size="38.0" fill="#FEFFFF" transform="matrix(1.00, 0.00, -0.00, -1.00, 524.4, 527.0)">a</text><text xml:space="preserve" font-family="SourceCodePro-Regular" font-size="38.0" fill="#FEFFFF" transform="matrix(1.00, 0.00, -0.00, -1.00, 547.2, 527.0)">r</text><text xml:space="preserve" font-family="SourceCodePro-Regular" font-size="38.0" fill="#FEFFFF" transform="matrix(1.00, 0.00, -0.00, -1.00, 570.0, 527.0)">j</text><text xml:space="preserve" font-family="SourceCodePro-Regular" font-size="38.0" fill="#FEFFFF" transform="matrix(1.00, 0.00, -0.00, -1.00, 592.8, 527.0)">s</text><text xml:space="preserve" font-family="SourceCodePro-Regular" font-size="38.0" fill="#FEFFFF" transform="matrix(1.00, 0.00, -0.00, -1.00, 615.6, 527.0)">.</text><text xml:space="preserve" font-family="SourceCodePro-Regular" font-size="38.0" fill="#FEFFFF" transform="matrix(1.00, 0.00, -0.00, -1.00, 638.4, 527.0)">o</text><text xml:space="preserve" font-family="SourceCodePro-Regular" font-size="38.0" fill="#FEFFFF" transform="matrix(1.00, 0.00, -0.00, -1.00, 661.2, 527.0)">r</text><text xml:space="preserve" font-family="SourceCodePro-Regular" font-size="38.0" fill="#FEFFFF" transform="matrix(1.00, 0.00, -0.00, -1.00, 684.0, 527.0)">g</text><text xml:space="preserve" font-family="SourceCodePro-Regular" font-size="38.0" fill="#FEFFFF" transform="matrix(1.00, 0.00, -0.00, -1.00, 706.8, 527.0)">/</text><text xml:space="preserve" font-family="SourceCodePro-Regular" font-size="38.0" fill="#FEFFFF" transform="matrix(1.00, 0.00, -0.00, -1.00, 729.6, 527.0)">a</text><text xml:space="preserve" font-family="SourceCodePro-Regular" font-size="38.0" fill="#FEFFFF" transform="matrix(1.00, 0.00, -0.00, -1.00, 752.4, 527.0)">p</text><text xml:space="preserve" font-family="SourceCodePro-Regular" font-size="38.0" fill="#FEFFFF" transform="matrix(1.00, 0.00, -0.00, -1.00, 775.2, 527.0)">i</text><text xml:space="preserve" font-family="SourceCodePro-Regular" font-size="38.0" fill="#FEFFFF" transform="matrix(1.00, 0.00, -0.00, -1.00, 798.0, 527.0)"> </text><g><clipPath id="clip-44"><path d="M 113.0 522.6 L 798.0 522.6 L 798.0 526.5 L 113.0 526.5 Z M 113.0 522.6 "></path></clipPath><g clip-path="url(#clip-44)"><path d="M 39.0 143.5 L 723.0 143.5 " fill="none" stroke="#FEFFFF" stroke-width="1.90" stroke-miterlimit="0.00" transform="matrix(1.00, 0.00, 0.00, -1.00, 75.0, 668.0)"></path></g></g><text xml:space="preserve" font-family="SourceCodePro-Regular" font-size="28.5" fill="#FEFFFF" transform="matrix(1.00, 0.00, -0.00, -1.00, 79.0, 441.3)">•</text><text xml:space="preserve" font-family="SourceCodePro-Regular" font-size="38.0" fill="#FEFFFF" transform="matrix(1.00, 0.00, -0.00, -1.00, 114.0, 438.0)">h</text><text xml:space="preserve" font-family="SourceCodePro-Regular" font-size="38.0" fill="#FEFFFF" transform="matrix(1.00, 0.00, -0.00, -1.00, 136.8, 438.0)">t</text><text xml:space="preserve" font-family="SourceCodePro-Regular" font-size="38.0" fill="#FEFFFF" transform="matrix(1.00, 0.00, -0.00, -1.00, 159.6, 438.0)">t</text><text xml:space="preserve" font-family="SourceCodePro-Regular" font-size="38.0" fill="#FEFFFF" transform="matrix(1.00, 0.00, -0.00, -1.00, 182.4, 438.0)">p</text><text xml:space="preserve" font-family="SourceCodePro-Regular" font-size="38.0" fill="#FEFFFF" transform="matrix(1.00, 0.00, -0.00, -1.00, 205.2, 438.0)">:</text><text xml:space="preserve" font-family="SourceCodePro-Regular" font-size="38.0" fill="#FEFFFF" transform="matrix(1.00, 0.00, -0.00, -1.00, 228.0, 438.0)">/</text><text xml:space="preserve" font-family="SourceCodePro-Regular" font-size="38.0" fill="#FEFFFF" transform="matrix(1.00, 0.00, -0.00, -1.00, 250.8, 438.0)">/</text><text xml:space="preserve" font-family="SourceCodePro-Regular" font-size="38.0" fill="#FEFFFF" transform="matrix(1.00, 0.00, -0.00, -1.00, 273.6, 438.0)">i</text><text xml:space="preserve" font-family="SourceCodePro-Regular" font-size="38.0" fill="#FEFFFF" transform="matrix(1.00, 0.00, -0.00, -1.00, 296.4, 438.0)">o</text><text xml:space="preserve" font-family="SourceCodePro-Regular" font-size="38.0" fill="#FEFFFF" transform="matrix(1.00, 0.00, -0.00, -1.00, 319.2, 438.0)">n</text><text xml:space="preserve" font-family="SourceCodePro-Regular" font-size="38.0" fill="#FEFFFF" transform="matrix(1.00, 0.00, -0.00, -1.00, 342.0, 438.0)">i</text><text xml:space="preserve" font-family="SourceCodePro-Regular" font-size="38.0" fill="#FEFFFF" transform="matrix(1.00, 0.00, -0.00, -1.00, 364.8, 438.0)">c</text><text xml:space="preserve" font-family="SourceCodePro-Regular" font-size="38.0" fill="#FEFFFF" transform="matrix(1.00, 0.00, -0.00, -1.00, 387.6, 438.0)">f</text><text xml:space="preserve" font-family="SourceCodePro-Regular" font-size="38.0" fill="#FEFFFF" transform="matrix(1.00, 0.00, -0.00, -1.00, 410.4, 438.0)">r</text><text xml:space="preserve" font-family="SourceCodePro-Regular" font-size="38.0" fill="#FEFFFF" transform="matrix(1.00, 0.00, -0.00, -1.00, 433.2, 438.0)">a</text><text xml:space="preserve" font-family="SourceCodePro-Regular" font-size="38.0" fill="#FEFFFF" transform="matrix(1.00, 0.00, -0.00, -1.00, 456.0, 438.0)">m</text><text xml:space="preserve" font-family="SourceCodePro-Regular" font-size="38.0" fill="#FEFFFF" transform="matrix(1.00, 0.00, -0.00, -1.00, 478.8, 438.0)">e</text><text xml:space="preserve" font-family="SourceCodePro-Regular" font-size="38.0" fill="#FEFFFF" transform="matrix(1.00, 0.00, -0.00, -1.00, 501.6, 438.0)">w</text><text xml:space="preserve" font-family="SourceCodePro-Regular" font-size="38.0" fill="#FEFFFF" transform="matrix(1.00, 0.00, -0.00, -1.00, 524.4, 438.0)">o</text><text xml:space="preserve" font-family="SourceCodePro-Regular" font-size="38.0" fill="#FEFFFF" transform="matrix(1.00, 0.00, -0.00, -1.00, 547.2, 438.0)">r</text><text xml:space="preserve" font-family="SourceCodePro-Regular" font-size="38.0" fill="#FEFFFF" transform="matrix(1.00, 0.00, -0.00, -1.00, 570.0, 438.0)">k</text><text xml:space="preserve" font-family="SourceCodePro-Regular" font-size="38.0" fill="#FEFFFF" transform="matrix(1.00, 0.00, -0.00, -1.00, 592.8, 438.0)">.</text><text xml:space="preserve" font-family="SourceCodePro-Regular" font-size="38.0" fill="#FEFFFF" transform="matrix(1.00, 0.00, -0.00, -1.00, 615.6, 438.0)">c</text><text xml:space="preserve" font-family="SourceCodePro-Regular" font-size="38.0" fill="#FEFFFF" transform="matrix(1.00, 0.00, -0.00, -1.00, 638.4, 438.0)">o</text><text xml:space="preserve" font-family="SourceCodePro-Regular" font-size="38.0" fill="#FEFFFF" transform="matrix(1.00, 0.00, -0.00, -1.00, 661.2, 438.0)">m</text><text xml:space="preserve" font-family="SourceCodePro-Regular" font-size="38.0" fill="#FEFFFF" transform="matrix(1.00, 0.00, -0.00, -1.00, 684.0, 438.0)">/</text><text xml:space="preserve" font-family="SourceCodePro-Regular" font-size="38.0" fill="#FEFFFF" transform="matrix(1.00, 0.00, -0.00, -1.00, 706.8, 438.0)">d</text><text xml:space="preserve" font-family="SourceCodePro-Regular" font-size="38.0" fill="#FEFFFF" transform="matrix(1.00, 0.00, -0.00, -1.00, 729.6, 438.0)">o</text><text xml:space="preserve" font-family="SourceCodePro-Regular" font-size="38.0" fill="#FEFFFF" transform="matrix(1.00, 0.00, -0.00, -1.00, 752.4, 438.0)">c</text><text xml:space="preserve" font-family="SourceCodePro-Regular" font-size="38.0" fill="#FEFFFF" transform="matrix(1.00, 0.00, -0.00, -1.00, 775.2, 438.0)">s</text><text xml:space="preserve" font-family="SourceCodePro-Regular" font-size="38.0" fill="#FEFFFF" transform="matrix(1.00, 0.00, -0.00, -1.00, 798.0, 438.0)">/</text><text xml:space="preserve" font-family="SourceCodePro-Regular" font-size="38.0" fill="#FEFFFF" transform="matrix(1.00, 0.00, -0.00, -1.00, 820.8, 438.0)"> </text><g><clipPath id="clip-45"><path d="M 113.0 433.6 L 820.8 433.6 L 820.8 437.5 L 113.0 437.5 Z M 113.0 433.6 "></path></clipPath><g clip-path="url(#clip-45)"><path d="M 39.0 232.5 L 745.8 232.5 " fill="none" stroke="#FEFFFF" stroke-width="1.90" stroke-miterlimit="0.00" transform="matrix(1.00, 0.00, 0.00, -1.00, 75.0, 668.0)"></path></g></g><text xml:space="preserve" font-family="SourceCodePro-Regular" font-size="28.5" fill="#FEFFFF" transform="matrix(1.00, 0.00, -0.00, -1.00, 79.0, 352.3)">•</text><text xml:space="preserve" font-family="SourceCodePro-Regular" font-size="38.0" fill="#FEFFFF" transform="matrix(1.00, 0.00, -0.00, -1.00, 114.0, 349.0)">h</text><text xml:space="preserve" font-family="SourceCodePro-Regular" font-size="38.0" fill="#FEFFFF" transform="matrix(1.00, 0.00, -0.00, -1.00, 136.8, 349.0)">t</text><text xml:space="preserve" font-family="SourceCodePro-Regular" font-size="38.0" fill="#FEFFFF" transform="matrix(1.00, 0.00, -0.00, -1.00, 159.6, 349.0)">t</text><text xml:space="preserve" font-family="SourceCodePro-Regular" font-size="38.0" fill="#FEFFFF" transform="matrix(1.00, 0.00, -0.00, -1.00, 182.4, 349.0)">p</text><text xml:space="preserve" font-family="SourceCodePro-Regular" font-size="38.0" fill="#FEFFFF" transform="matrix(1.00, 0.00, -0.00, -1.00, 205.2, 349.0)">:</text><text xml:space="preserve" font-family="SourceCodePro-Regular" font-size="38.0" fill="#FEFFFF" transform="matrix(1.00, 0.00, -0.00, -1.00, 228.0, 349.0)">/</text><text xml:space="preserve" font-family="SourceCodePro-Regular" font-size="38.0" fill="#FEFFFF" transform="matrix(1.00, 0.00, -0.00, -1.00, 250.8, 349.0)">/</text><text xml:space="preserve" font-family="SourceCodePro-Regular" font-size="38.0" fill="#FEFFFF" transform="matrix(1.00, 0.00, -0.00, -1.00, 273.6, 349.0)">j</text><text xml:space="preserve" font-family="SourceCodePro-Regular" font-size="38.0" fill="#FEFFFF" transform="matrix(1.00, 0.00, -0.00, -1.00, 296.4, 349.0)">a</text><text xml:space="preserve" font-family="SourceCodePro-Regular" font-size="38.0" fill="#FEFFFF" transform="matrix(1.00, 0.00, -0.00, -1.00, 319.2, 349.0)">.</text><text xml:space="preserve" font-family="SourceCodePro-Regular" font-size="38.0" fill="#FEFFFF" transform="matrix(1.00, 0.00, -0.00, -1.00, 342.0, 349.0)">w</text><text xml:space="preserve" font-family="SourceCodePro-Regular" font-size="38.0" fill="#FEFFFF" transform="matrix(1.00, 0.00, -0.00, -1.00, 364.8, 349.0)">p</text><text xml:space="preserve" font-family="SourceCodePro-Regular" font-size="38.0" fill="#FEFFFF" transform="matrix(1.00, 0.00, -0.00, -1.00, 387.6, 349.0)">-</text><text xml:space="preserve" font-family="SourceCodePro-Regular" font-size="38.0" fill="#FEFFFF" transform="matrix(1.00, 0.00, -0.00, -1.00, 410.4, 349.0)">a</text><text xml:space="preserve" font-family="SourceCodePro-Regular" font-size="38.0" fill="#FEFFFF" transform="matrix(1.00, 0.00, -0.00, -1.00, 433.2, 349.0)">p</text><text xml:space="preserve" font-family="SourceCodePro-Regular" font-size="38.0" fill="#FEFFFF" transform="matrix(1.00, 0.00, -0.00, -1.00, 456.0, 349.0)">i</text><text xml:space="preserve" font-family="SourceCodePro-Regular" font-size="38.0" fill="#FEFFFF" transform="matrix(1.00, 0.00, -0.00, -1.00, 478.8, 349.0)">.</text><text xml:space="preserve" font-family="SourceCodePro-Regular" font-size="38.0" fill="#FEFFFF" transform="matrix(1.00, 0.00, -0.00, -1.00, 501.6, 349.0)">o</text><text xml:space="preserve" font-family="SourceCodePro-Regular" font-size="38.0" fill="#FEFFFF" transform="matrix(1.00, 0.00, -0.00, -1.00, 524.4, 349.0)">r</text><text xml:space="preserve" font-family="SourceCodePro-Regular" font-size="38.0" fill="#FEFFFF" transform="matrix(1.00, 0.00, -0.00, -1.00, 547.2, 349.0)">g</text><text xml:space="preserve" font-family="SourceCodePro-Regular" font-size="38.0" fill="#FEFFFF" transform="matrix(1.00, 0.00, -0.00, -1.00, 570.0, 349.0)">/</text><text xml:space="preserve" font-family="SourceCodePro-Regular" font-size="38.0" fill="#FEFFFF" transform="matrix(1.00, 0.00, -0.00, -1.00, 592.8, 349.0)"> </text><g><clipPath id="clip-46"><path d="M 113.0 344.6 L 592.8 344.6 L 592.8 348.5 L 113.0 348.5 Z M 113.0 344.6 "></path></clipPath><g clip-path="url(#clip-46)"><path d="M 39.0 321.5 L 517.8 321.5 " fill="none" stroke="#FEFFFF" stroke-width="1.90" stroke-miterlimit="0.00" transform="matrix(1.00, 0.00, 0.00, -1.00, 75.0, 668.0)"></path></g></g><text xml:space="preserve" font-family="SourceCodePro-Regular" font-size="28.5" fill="#FEFFFF" transform="matrix(1.00, 0.00, -0.00, -1.00, 79.0, 263.3)">•</text><text xml:space="preserve" font-family="SourceCodePro-Regular" font-size="38.0" fill="#FEFFFF" transform="matrix(1.00, 0.00, -0.00, -1.00, 114.0, 260.0)">h</text><text xml:space="preserve" font-family="SourceCodePro-Regular" font-size="38.0" fill="#FEFFFF" transform="matrix(1.00, 0.00, -0.00, -1.00, 136.8, 260.0)">t</text><text xml:space="preserve" font-family="SourceCodePro-Regular" font-size="38.0" fill="#FEFFFF" transform="matrix(1.00, 0.00, -0.00, -1.00, 159.6, 260.0)">t</text><text xml:space="preserve" font-family="SourceCodePro-Regular" font-size="38.0" fill="#FEFFFF" transform="matrix(1.00, 0.00, -0.00, -1.00, 182.4, 260.0)">p</text><text xml:space="preserve" font-family="SourceCodePro-Regular" font-size="38.0" fill="#FEFFFF" transform="matrix(1.00, 0.00, -0.00, -1.00, 205.2, 260.0)">s</text><text xml:space="preserve" font-family="SourceCodePro-Regular" font-size="38.0" fill="#FEFFFF" transform="matrix(1.00, 0.00, -0.00, -1.00, 228.0, 260.0)">:</text><text xml:space="preserve" font-family="SourceCodePro-Regular" font-size="38.0" fill="#FEFFFF" transform="matrix(1.00, 0.00, -0.00, -1.00, 250.8, 260.0)">/</text><text xml:space="preserve" font-family="SourceCodePro-Regular" font-size="38.0" fill="#FEFFFF" transform="matrix(1.00, 0.00, -0.00, -1.00, 273.6, 260.0)">/</text><text xml:space="preserve" font-family="SourceCodePro-Regular" font-size="38.0" fill="#FEFFFF" transform="matrix(1.00, 0.00, -0.00, -1.00, 296.4, 260.0)">g</text><text xml:space="preserve" font-family="SourceCodePro-Regular" font-size="38.0" fill="#FEFFFF" transform="matrix(1.00, 0.00, -0.00, -1.00, 319.2, 260.0)">i</text><text xml:space="preserve" font-family="SourceCodePro-Regular" font-size="38.0" fill="#FEFFFF" transform="matrix(1.00, 0.00, -0.00, -1.00, 342.0, 260.0)">t</text><text xml:space="preserve" font-family="SourceCodePro-Regular" font-size="38.0" fill="#FEFFFF" transform="matrix(1.00, 0.00, -0.00, -1.00, 364.8, 260.0)">h</text><text xml:space="preserve" font-family="SourceCodePro-Regular" font-size="38.0" fill="#FEFFFF" transform="matrix(1.00, 0.00, -0.00, -1.00, 387.6, 260.0)">u</text><text xml:space="preserve" font-family="SourceCodePro-Regular" font-size="38.0" fill="#FEFFFF" transform="matrix(1.00, 0.00, -0.00, -1.00, 410.4, 260.0)">b</text><text xml:space="preserve" font-family="SourceCodePro-Regular" font-size="38.0" fill="#FEFFFF" transform="matrix(1.00, 0.00, -0.00, -1.00, 433.2, 260.0)">.</text><text xml:space="preserve" font-family="SourceCodePro-Regular" font-size="38.0" fill="#FEFFFF" transform="matrix(1.00, 0.00, -0.00, -1.00, 456.0, 260.0)">c</text><text xml:space="preserve" font-family="SourceCodePro-Regular" font-size="38.0" fill="#FEFFFF" transform="matrix(1.00, 0.00, -0.00, -1.00, 478.8, 260.0)">o</text><text xml:space="preserve" font-family="SourceCodePro-Regular" font-size="38.0" fill="#FEFFFF" transform="matrix(1.00, 0.00, -0.00, -1.00, 501.6, 260.0)">m</text><text xml:space="preserve" font-family="SourceCodePro-Regular" font-size="38.0" fill="#FEFFFF" transform="matrix(1.00, 0.00, -0.00, -1.00, 524.4, 260.0)">/</text><text xml:space="preserve" font-family="SourceCodePro-Regular" font-size="38.0" fill="#FEFFFF" transform="matrix(1.00, 0.00, -0.00, -1.00, 547.2, 260.0)">m</text><text xml:space="preserve" font-family="SourceCodePro-Regular" font-size="38.0" fill="#FEFFFF" transform="matrix(1.00, 0.00, -0.00, -1.00, 570.0, 260.0)">i</text><text xml:space="preserve" font-family="SourceCodePro-Regular" font-size="38.0" fill="#FEFFFF" transform="matrix(1.00, 0.00, -0.00, -1.00, 592.8, 260.0)">y</text><text xml:space="preserve" font-family="SourceCodePro-Regular" font-size="38.0" fill="#FEFFFF" transform="matrix(1.00, 0.00, -0.00, -1.00, 615.6, 260.0)">a</text><text xml:space="preserve" font-family="SourceCodePro-Regular" font-size="38.0" fill="#FEFFFF" transform="matrix(1.00, 0.00, -0.00, -1.00, 638.4, 260.0)">0</text><text xml:space="preserve" font-family="SourceCodePro-Regular" font-size="38.0" fill="#FEFFFF" transform="matrix(1.00, 0.00, -0.00, -1.00, 661.2, 260.0)">0</text><text xml:space="preserve" font-family="SourceCodePro-Regular" font-size="38.0" fill="#FEFFFF" transform="matrix(1.00, 0.00, -0.00, -1.00, 684.0, 260.0)">0</text><text xml:space="preserve" font-family="SourceCodePro-Regular" font-size="38.0" fill="#FEFFFF" transform="matrix(1.00, 0.00, -0.00, -1.00, 706.8, 260.0)">1</text><text xml:space="preserve" font-family="SourceCodePro-Regular" font-size="38.0" fill="#FEFFFF" transform="matrix(1.00, 0.00, -0.00, -1.00, 729.6, 260.0)">/</text><text xml:space="preserve" font-family="SourceCodePro-Regular" font-size="38.0" fill="#FEFFFF" transform="matrix(1.00, 0.00, -0.00, -1.00, 752.4, 260.0)">w</text><text xml:space="preserve" font-family="SourceCodePro-Regular" font-size="38.0" fill="#FEFFFF" transform="matrix(1.00, 0.00, -0.00, -1.00, 775.2, 260.0)">p</text><text xml:space="preserve" font-family="SourceCodePro-Regular" font-size="38.0" fill="#FEFFFF" transform="matrix(1.00, 0.00, -0.00, -1.00, 798.0, 260.0)">-</text><g><clipPath id="clip-47"><path d="M 113.0 255.6 L 820.8 255.6 L 820.8 259.5 L 113.0 259.5 Z M 113.0 255.6 "></path></clipPath><g clip-path="url(#clip-47)"><path d="M 39.0 410.5 L 745.8 410.5 " fill="none" stroke="#FEFFFF" stroke-width="1.90" stroke-miterlimit="0.00" transform="matrix(1.00, 0.00, 0.00, -1.00, 75.0, 668.0)"></path></g></g><text xml:space="preserve" font-family="SourceCodePro-Regular" font-size="38.0" fill="#FEFFFF" transform="matrix(1.00, 0.00, -0.00, -1.00, 114.0, 213.0)">a</text><text xml:space="preserve" font-family="SourceCodePro-Regular" font-size="38.0" fill="#FEFFFF" transform="matrix(1.00, 0.00, -0.00, -1.00, 136.8, 213.0)">n</text><text xml:space="preserve" font-family="SourceCodePro-Regular" font-size="38.0" fill="#FEFFFF" transform="matrix(1.00, 0.00, -0.00, -1.00, 159.6, 213.0)">g</text><text xml:space="preserve" font-family="SourceCodePro-Regular" font-size="38.0" fill="#FEFFFF" transform="matrix(1.00, 0.00, -0.00, -1.00, 182.4, 213.0)">u</text><text xml:space="preserve" font-family="SourceCodePro-Regular" font-size="38.0" fill="#FEFFFF" transform="matrix(1.00, 0.00, -0.00, -1.00, 205.2, 213.0)">l</text><text xml:space="preserve" font-family="SourceCodePro-Regular" font-size="38.0" fill="#FEFFFF" transform="matrix(1.00, 0.00, -0.00, -1.00, 228.0, 213.0)">a</text><text xml:space="preserve" font-family="SourceCodePro-Regular" font-size="38.0" fill="#FEFFFF" transform="matrix(1.00, 0.00, -0.00, -1.00, 250.8, 213.0)">r</text><text xml:space="preserve" font-family="SourceCodePro-Regular" font-size="38.0" fill="#FEFFFF" transform="matrix(1.00, 0.00, -0.00, -1.00, 273.6, 213.0)">j</text><text xml:space="preserve" font-family="SourceCodePro-Regular" font-size="38.0" fill="#FEFFFF" transform="matrix(1.00, 0.00, -0.00, -1.00, 296.4, 213.0)">s</text><g><clipPath id="clip-48"><path d="M 113.0 208.6 L 319.2 208.6 L 319.2 212.5 L 113.0 212.5 Z M 113.0 208.6 "></path></clipPath><g clip-path="url(#clip-48)"><path d="M 39.0 457.5 L 244.2 457.5 " fill="none" stroke="#FEFFFF" stroke-width="1.90" stroke-miterlimit="0.00" transform="matrix(1.00, 0.00, 0.00, -1.00, 75.0, 668.0)"></path></g></g></g></svg>