<?xml version="1.0" encoding="UTF-8" standalone="no"?><svg xmlns="http://www.w3.org/2000/svg" xmlns:xlink="http://www.w3.org/1999/xlink" clip-rule="evenodd" stroke-miterlimit="4.00" viewBox="0 0 1024 768"><desc>SVG generated by Keynote</desc><defs></defs><g transform="matrix(1.00, 0.00, -0.00, -1.00, 0.0, 768.0)"><path d="M 0.0 768.0 L 1024.0 768.0 L 1024.0 0.0 L 0.0 0.0 Z M 0.0 768.0 " fill="#000000"></path><text xml:space="preserve" font-family="SourceCodePro-Regular" font-size="36.0" fill="#FEFFFF" transform="matrix(1.00, 0.00, -0.00, -1.00, 21.0, 529.0)">&lt;</text><text xml:space="preserve" font-family="SourceCodePro-Regular" font-size="36.0" fill="#FEFFFF" transform="matrix(1.00, 0.00, -0.00, -1.00, 42.6, 529.0)">b</text><text xml:space="preserve" font-family="SourceCodePro-Regular" font-size="36.0" fill="#FEFFFF" transform="matrix(1.00, 0.00, -0.00, -1.00, 64.2, 529.0)">o</text><text xml:space="preserve" font-family="SourceCodePro-Regular" font-size="36.0" fill="#FEFFFF" transform="matrix(1.00, 0.00, -0.00, -1.00, 85.8, 529.0)">d</text><text xml:space="preserve" font-family="SourceCodePro-Regular" font-size="36.0" fill="#FEFFFF" transform="matrix(1.00, 0.00, -0.00, -1.00, 107.4, 529.0)">y</text><text xml:space="preserve" font-family="SourceCodePro-Regular" font-size="36.0" fill="#FEFFFF" transform="matrix(1.00, 0.00, -0.00, -1.00, 129.0, 529.0)">&gt;</text><text xml:space="preserve" font-family="SourceCodePro-Regular" font-size="36.0" fill="#FEFFFF" transform="matrix(1.00, 0.00, -0.00, -1.00, 150.6, 529.0)"> </text><text xml:space="preserve" font-family="SourceCodePro-Regular" font-size="36.0" fill="#FEFFFF" transform="matrix(1.00, 0.00, -0.00, -1.00, 21.0, 484.0)"> </text><text xml:space="preserve" font-family="SourceCodePro-Regular" font-size="36.0" fill="#FEFFFF" transform="matrix(1.00, 0.00, -0.00, -1.00, 42.6, 484.0)"> </text><text xml:space="preserve" font-family="SourceCodePro-Regular" font-size="36.0" fill="#FEFFFF" transform="matrix(1.00, 0.00, -0.00, -1.00, 64.2, 484.0)">&lt;</text><text xml:space="preserve" font-family="SourceCodePro-Regular" font-size="36.0" fill="#FF2600" transform="matrix(1.00, 0.00, -0.00, -1.00, 85.8, 484.0)">h</text><text xml:space="preserve" font-family="SourceCodePro-Regular" font-size="36.0" fill="#FF2600" transform="matrix(1.00, 0.00, -0.00, -1.00, 107.4, 484.0)">a</text><text xml:space="preserve" font-family="SourceCodePro-Regular" font-size="36.0" fill="#FF2600" transform="matrix(1.00, 0.00, -0.00, -1.00, 129.0, 484.0)">v</text><text xml:space="preserve" font-family="SourceCodePro-Regular" font-size="36.0" fill="#FF2600" transform="matrix(1.00, 0.00, -0.00, -1.00, 150.6, 484.0)">e</text><text xml:space="preserve" font-family="SourceCodePro-Regular" font-size="36.0" fill="#FF2600" transform="matrix(1.00, 0.00, -0.00, -1.00, 172.2, 484.0)">-</text><text xml:space="preserve" font-family="SourceCodePro-Regular" font-size="36.0" fill="#FF2600" transform="matrix(1.00, 0.00, -0.00, -1.00, 193.8, 484.0)">p</text><text xml:space="preserve" font-family="SourceCodePro-Regular" font-size="36.0" fill="#FF2600" transform="matrix(1.00, 0.00, -0.00, -1.00, 215.4, 484.0)">o</text><text xml:space="preserve" font-family="SourceCodePro-Regular" font-size="36.0" fill="#FF2600" transform="matrix(1.00, 0.00, -0.00, -1.00, 237.0, 484.0)">s</text><text xml:space="preserve" font-family="SourceCodePro-Regular" font-size="36.0" fill="#FF2600" transform="matrix(1.00, 0.00, -0.00, -1.00, 258.6, 484.0)">t</text><text xml:space="preserve" font-family="SourceCodePro-Regular" font-size="36.0" fill="#FF2600" transform="matrix(1.00, 0.00, -0.00, -1.00, 280.2, 484.0)">s</text><text xml:space="preserve" font-family="SourceCodePro-Regular" font-size="36.0" fill="#FEFFFF" transform="matrix(1.00, 0.00, -0.00, -1.00, 301.8, 484.0)"> </text><text xml:space="preserve" font-family="SourceCodePro-Regular" font-size="36.0" fill="#FEFFFF" transform="matrix(1.00, 0.00, -0.00, -1.00, 21.0, 439.0)"> </text><text xml:space="preserve" font-family="SourceCodePro-Regular" font-size="36.0" fill="#FEFFFF" transform="matrix(1.00, 0.00, -0.00, -1.00, 42.6, 439.0)"> </text><text xml:space="preserve" font-family="SourceCodePro-Regular" font-size="36.0" fill="#FEFFFF" transform="matrix(1.00, 0.00, -0.00, -1.00, 64.2, 439.0)"> </text><text xml:space="preserve" font-family="SourceCodePro-Regular" font-size="36.0" fill="#FEFFFF" transform="matrix(1.00, 0.00, -0.00, -1.00, 85.8, 439.0)"> </text><text xml:space="preserve" font-family="SourceCodePro-Regular" font-size="36.0" fill="#FEFFFF" transform="matrix(1.00, 0.00, -0.00, -1.00, 107.4, 439.0)"> </text><text xml:space="preserve" font-family="SourceCodePro-Regular" font-size="36.0" fill="#FEFFFF" transform="matrix(1.00, 0.00, -0.00, -1.00, 129.0, 439.0)">a</text><text xml:space="preserve" font-family="SourceCodePro-Regular" font-size="36.0" fill="#FEFFFF" transform="matrix(1.00, 0.00, -0.00, -1.00, 150.6, 439.0)">p</text><text xml:space="preserve" font-family="SourceCodePro-Regular" font-size="36.0" fill="#FEFFFF" transform="matrix(1.00, 0.00, -0.00, -1.00, 172.2, 439.0)">i</text><text xml:space="preserve" font-family="SourceCodePro-Regular" font-size="36.0" fill="#FEFFFF" transform="matrix(1.00, 0.00, -0.00, -1.00, 193.8, 439.0)">-</text><text xml:space="preserve" font-family="SourceCodePro-Regular" font-size="36.0" fill="#FEFFFF" transform="matrix(1.00, 0.00, -0.00, -1.00, 215.4, 439.0)">r</text><text xml:space="preserve" font-family="SourceCodePro-Regular" font-size="36.0" fill="#FEFFFF" transform="matrix(1.00, 0.00, -0.00, -1.00, 237.0, 439.0)">o</text><text xml:space="preserve" font-family="SourceCodePro-Regular" font-size="36.0" fill="#FEFFFF" transform="matrix(1.00, 0.00, -0.00, -1.00, 258.6, 439.0)">o</text><text xml:space="preserve" font-family="SourceCodePro-Regular" font-size="36.0" fill="#FEFFFF" transform="matrix(1.00, 0.00, -0.00, -1.00, 280.2, 439.0)">t</text><text xml:space="preserve" font-family="SourceCodePro-Regular" font-size="36.0" fill="#FEFFFF" transform="matrix(1.00, 0.00, -0.00, -1.00, 301.8, 439.0)">=</text><text xml:space="preserve" font-family="SourceCodePro-Regular" font-size="36.0" fill="#FEFFFF" transform="matrix(1.00, 0.00, -0.00, -1.00, 323.4, 439.0)">"</text><text xml:space="preserve" font-family="SourceCodePro-Regular" font-size="36.0" fill="#FEFFFF" transform="matrix(1.00, 0.00, -0.00, -1.00, 345.0, 439.0)">h</text><text xml:space="preserve" font-family="SourceCodePro-Regular" font-size="36.0" fill="#FEFFFF" transform="matrix(1.00, 0.00, -0.00, -1.00, 366.6, 439.0)">t</text><text xml:space="preserve" font-family="SourceCodePro-Regular" font-size="36.0" fill="#FEFFFF" transform="matrix(1.00, 0.00, -0.00, -1.00, 388.2, 439.0)">t</text><text xml:space="preserve" font-family="SourceCodePro-Regular" font-size="36.0" fill="#FEFFFF" transform="matrix(1.00, 0.00, -0.00, -1.00, 409.8, 439.0)">p</text><text xml:space="preserve" font-family="SourceCodePro-Regular" font-size="36.0" fill="#FEFFFF" transform="matrix(1.00, 0.00, -0.00, -1.00, 431.4, 439.0)">:</text><text xml:space="preserve" font-family="SourceCodePro-Regular" font-size="36.0" fill="#FEFFFF" transform="matrix(1.00, 0.00, -0.00, -1.00, 453.0, 439.0)">/</text><text xml:space="preserve" font-family="SourceCodePro-Regular" font-size="36.0" fill="#FEFFFF" transform="matrix(1.00, 0.00, -0.00, -1.00, 474.6, 439.0)">/</text><text xml:space="preserve" font-family="SourceCodePro-Regular" font-size="36.0" fill="#FEFFFF" transform="matrix(1.00, 0.00, -0.00, -1.00, 496.2, 439.0)">.</text><text xml:space="preserve" font-family="SourceCodePro-Regular" font-size="36.0" fill="#FEFFFF" transform="matrix(1.00, 0.00, -0.00, -1.00, 517.8, 439.0)">.</text><text xml:space="preserve" font-family="SourceCodePro-Regular" font-size="36.0" fill="#FEFFFF" transform="matrix(1.00, 0.00, -0.00, -1.00, 539.4, 439.0)">.</text><text xml:space="preserve" font-family="SourceCodePro-Regular" font-size="36.0" fill="#FEFFFF" transform="matrix(1.00, 0.00, -0.00, -1.00, 561.0, 439.0)">/</text><text xml:space="preserve" font-family="SourceCodePro-Regular" font-size="36.0" fill="#FEFFFF" transform="matrix(1.00, 0.00, -0.00, -1.00, 582.6, 439.0)">w</text><text xml:space="preserve" font-family="SourceCodePro-Regular" font-size="36.0" fill="#FEFFFF" transform="matrix(1.00, 0.00, -0.00, -1.00, 604.2, 439.0)">p</text><text xml:space="preserve" font-family="SourceCodePro-Regular" font-size="36.0" fill="#FEFFFF" transform="matrix(1.00, 0.00, -0.00, -1.00, 625.8, 439.0)">-</text><text xml:space="preserve" font-family="SourceCodePro-Regular" font-size="36.0" fill="#FEFFFF" transform="matrix(1.00, 0.00, -0.00, -1.00, 647.4, 439.0)">j</text><text xml:space="preserve" font-family="SourceCodePro-Regular" font-size="36.0" fill="#FEFFFF" transform="matrix(1.00, 0.00, -0.00, -1.00, 669.0, 439.0)">s</text><text xml:space="preserve" font-family="SourceCodePro-Regular" font-size="36.0" fill="#FEFFFF" transform="matrix(1.00, 0.00, -0.00, -1.00, 690.6, 439.0)">o</text><text xml:space="preserve" font-family="SourceCodePro-Regular" font-size="36.0" fill="#FEFFFF" transform="matrix(1.00, 0.00, -0.00, -1.00, 712.2, 439.0)">n</text><text xml:space="preserve" font-family="SourceCodePro-Regular" font-size="36.0" fill="#FEFFFF" transform="matrix(1.00, 0.00, -0.00, -1.00, 733.8, 439.0)">/</text><text xml:space="preserve" font-family="SourceCodePro-Regular" font-size="36.0" fill="#FEFFFF" transform="matrix(1.00, 0.00, -0.00, -1.00, 755.4, 439.0)">w</text><text xml:space="preserve" font-family="SourceCodePro-Regular" font-size="36.0" fill="#FEFFFF" transform="matrix(1.00, 0.00, -0.00, -1.00, 777.0, 439.0)">p</text><text xml:space="preserve" font-family="SourceCodePro-Regular" font-size="36.0" fill="#FEFFFF" transform="matrix(1.00, 0.00, -0.00, -1.00, 798.6, 439.0)">/</text><text xml:space="preserve" font-family="SourceCodePro-Regular" font-size="36.0" fill="#FEFFFF" transform="matrix(1.00, 0.00, -0.00, -1.00, 820.2, 439.0)">v</text><text xml:space="preserve" font-family="SourceCodePro-Regular" font-size="36.0" fill="#FEFFFF" transform="matrix(1.00, 0.00, -0.00, -1.00, 841.8, 439.0)">2</text><text xml:space="preserve" font-family="SourceCodePro-Regular" font-size="36.0" fill="#FEFFFF" transform="matrix(1.00, 0.00, -0.00, -1.00, 863.4, 439.0)">"</text><text xml:space="preserve" font-family="SourceCodePro-Regular" font-size="36.0" fill="#FEFFFF" transform="matrix(1.00, 0.00, -0.00, -1.00, 885.0, 439.0)"> </text><text xml:space="preserve" font-family="SourceCodePro-Regular" font-size="36.0" fill="#FEFFFF" transform="matrix(1.00, 0.00, -0.00, -1.00, 21.0, 394.0)"> </text><text xml:space="preserve" font-family="SourceCodePro-Regular" font-size="36.0" fill="#FEFFFF" transform="matrix(1.00, 0.00, -0.00, -1.00, 42.6, 394.0)"> </text><text xml:space="preserve" font-family="SourceCodePro-Regular" font-size="36.0" fill="#FEFFFF" transform="matrix(1.00, 0.00, -0.00, -1.00, 64.2, 394.0)"> </text><text xml:space="preserve" font-family="SourceCodePro-Regular" font-size="36.0" fill="#FEFFFF" transform="matrix(1.00, 0.00, -0.00, -1.00, 85.8, 394.0)"> </text><text xml:space="preserve" font-family="SourceCodePro-Regular" font-size="36.0" fill="#FEFFFF" transform="matrix(1.00, 0.00, -0.00, -1.00, 107.4, 394.0)"> </text><text xml:space="preserve" font-family="SourceCodePro-Regular" font-size="36.0" fill="#FEFFFF" transform="matrix(1.00, 0.00, -0.00, -1.00, 129.0, 394.0)">p</text><text xml:space="preserve" font-family="SourceCodePro-Regular" font-size="36.0" fill="#FEFFFF" transform="matrix(1.00, 0.00, -0.00, -1.00, 150.6, 394.0)">o</text><text xml:space="preserve" font-family="SourceCodePro-Regular" font-size="36.0" fill="#FEFFFF" transform="matrix(1.00, 0.00, -0.00, -1.00, 172.2, 394.0)">s</text><text xml:space="preserve" font-family="SourceCodePro-Regular" font-size="36.0" fill="#FEFFFF" transform="matrix(1.00, 0.00, -0.00, -1.00, 193.8, 394.0)">t</text><text xml:space="preserve" font-family="SourceCodePro-Regular" font-size="36.0" fill="#FEFFFF" transform="matrix(1.00, 0.00, -0.00, -1.00, 215.4, 394.0)">-</text><text xml:space="preserve" font-family="SourceCodePro-Regular" font-size="36.0" fill="#FEFFFF" transform="matrix(1.00, 0.00, -0.00, -1.00, 237.0, 394.0)">t</text><text xml:space="preserve" font-family="SourceCodePro-Regular" font-size="36.0" fill="#FEFFFF" transform="matrix(1.00, 0.00, -0.00, -1.00, 258.6, 394.0)">y</text><text xml:space="preserve" font-family="SourceCodePro-Regular" font-size="36.0" fill="#FEFFFF" transform="matrix(1.00, 0.00, -0.00, -1.00, 280.2, 394.0)">p</text><text xml:space="preserve" font-family="SourceCodePro-Regular" font-size="36.0" fill="#FEFFFF" transform="matrix(1.00, 0.00, -0.00, -1.00, 301.8, 394.0)">e</text><text xml:space="preserve" font-family="SourceCodePro-Regular" font-size="36.0" fill="#FEFFFF" transform="matrix(1.00, 0.00, -0.00, -1.00, 323.4, 394.0)">=</text><text xml:space="preserve" font-family="SourceCodePro-Regular" font-size="36.0" fill="#FEFFFF" transform="matrix(1.00, 0.00, -0.00, -1.00, 345.0, 394.0)">"</text><text xml:space="preserve" font-family="SourceCodePro-Regular" font-size="36.0" fill="#FEFFFF" transform="matrix(1.00, 0.00, -0.00, -1.00, 366.6, 394.0)">p</text><text xml:space="preserve" font-family="SourceCodePro-Regular" font-size="36.0" fill="#FEFFFF" transform="matrix(1.00, 0.00, -0.00, -1.00, 388.2, 394.0)">o</text><text xml:space="preserve" font-family="SourceCodePro-Regular" font-size="36.0" fill="#FEFFFF" transform="matrix(1.00, 0.00, -0.00, -1.00, 409.8, 394.0)">s</text><text xml:space="preserve" font-family="SourceCodePro-Regular" font-size="36.0" fill="#FEFFFF" transform="matrix(1.00, 0.00, -0.00, -1.00, 431.4, 394.0)">t</text><text xml:space="preserve" font-family="SourceCodePro-Regular" font-size="36.0" fill="#FEFFFF" transform="matrix(1.00, 0.00, -0.00, -1.00, 453.0, 394.0)">s</text><text xml:space="preserve" font-family="SourceCodePro-Regular" font-size="36.0" fill="#FEFFFF" transform="matrix(1.00, 0.00, -0.00, -1.00, 474.6, 394.0)">"</text><text xml:space="preserve" font-family="SourceCodePro-Regular" font-size="36.0" fill="#FEFFFF" transform="matrix(1.00, 0.00, -0.00, -1.00, 496.2, 394.0)"> </text><text xml:space="preserve" font-family="SourceCodePro-Regular" font-size="36.0" fill="#FEFFFF" transform="matrix(1.00, 0.00, -0.00, -1.00, 517.8, 394.0)">p</text><text xml:space="preserve" font-family="SourceCodePro-Regular" font-size="36.0" fill="#FEFFFF" transform="matrix(1.00, 0.00, -0.00, -1.00, 539.4, 394.0)">e</text><text xml:space="preserve" font-family="SourceCodePro-Regular" font-size="36.0" fill="#FEFFFF" transform="matrix(1.00, 0.00, -0.00, -1.00, 561.0, 394.0)">r</text><text xml:space="preserve" font-family="SourceCodePro-Regular" font-size="36.0" fill="#FEFFFF" transform="matrix(1.00, 0.00, -0.00, -1.00, 582.6, 394.0)">-</text><text xml:space="preserve" font-family="SourceCodePro-Regular" font-size="36.0" fill="#FEFFFF" transform="matrix(1.00, 0.00, -0.00, -1.00, 604.2, 394.0)">p</text><text xml:space="preserve" font-family="SourceCodePro-Regular" font-size="36.0" fill="#FEFFFF" transform="matrix(1.00, 0.00, -0.00, -1.00, 625.8, 394.0)">a</text><text xml:space="preserve" font-family="SourceCodePro-Regular" font-size="36.0" fill="#FEFFFF" transform="matrix(1.00, 0.00, -0.00, -1.00, 647.4, 394.0)">g</text><text xml:space="preserve" font-family="SourceCodePro-Regular" font-size="36.0" fill="#FEFFFF" transform="matrix(1.00, 0.00, -0.00, -1.00, 669.0, 394.0)">e</text><text xml:space="preserve" font-family="SourceCodePro-Regular" font-size="36.0" fill="#FEFFFF" transform="matrix(1.00, 0.00, -0.00, -1.00, 690.6, 394.0)">=</text><text xml:space="preserve" font-family="SourceCodePro-Regular" font-size="36.0" fill="#FEFFFF" transform="matrix(1.00, 0.00, -0.00, -1.00, 712.2, 394.0)">"</text><text xml:space="preserve" font-family="SourceCodePro-Regular" font-size="36.0" fill="#FEFFFF" transform="matrix(1.00, 0.00, -0.00, -1.00, 733.8, 394.0)">5</text><text xml:space="preserve" font-family="SourceCodePro-Regular" font-size="36.0" fill="#FEFFFF" transform="matrix(1.00, 0.00, -0.00, -1.00, 755.4, 394.0)">"</text><text xml:space="preserve" font-family="SourceCodePro-Regular" font-size="36.0" fill="#FEFFFF" transform="matrix(1.00, 0.00, -0.00, -1.00, 777.0, 394.0)">&gt;</text><text xml:space="preserve" font-family="SourceCodePro-Regular" font-size="36.0" fill="#FEFFFF" transform="matrix(1.00, 0.00, -0.00, -1.00, 798.6, 394.0)"> </text><text xml:space="preserve" font-family="SourceCodePro-Regular" font-size="36.0" fill="#FEFFFF" transform="matrix(1.00, 0.00, -0.00, -1.00, 21.0, 349.0)"> </text><text xml:space="preserve" font-family="SourceCodePro-Regular" font-size="36.0" fill="#FEFFFF" transform="matrix(1.00, 0.00, -0.00, -1.00, 42.6, 349.0)"> </text><text xml:space="preserve" font-family="SourceCodePro-Regular" font-size="36.0" fill="#FEFFFF" transform="matrix(1.00, 0.00, -0.00, -1.00, 64.2, 349.0)"> </text><text xml:space="preserve" font-family="SourceCodePro-Regular" font-size="36.0" fill="#FEFFFF" transform="matrix(1.00, 0.00, -0.00, -1.00, 85.8, 349.0)"> </text><text xml:space="preserve" font-family="SourceCodePro-Regular" font-size="36.0" fill="#FEFFFF" transform="matrix(1.00, 0.00, -0.00, -1.00, 107.4, 349.0)"> </text><text xml:space="preserve" font-family="SourceCodePro-Regular" font-size="36.0" fill="#FEFFFF" transform="matrix(1.00, 0.00, -0.00, -1.00, 129.0, 349.0)">&lt;</text><text xml:space="preserve" font-family="SourceCodePro-Regular" font-size="36.0" fill="#FEFFFF" transform="matrix(1.00, 0.00, -0.00, -1.00, 150.6, 349.0)">h</text><text xml:space="preserve" font-family="SourceCodePro-Regular" font-size="36.0" fill="#FEFFFF" transform="matrix(1.00, 0.00, -0.00, -1.00, 172.2, 349.0)">1</text><text xml:space="preserve" font-family="SourceCodePro-Regular" font-size="36.0" fill="#FEFFFF" transform="matrix(1.00, 0.00, -0.00, -1.00, 193.8, 349.0)">&gt;</text><text xml:space="preserve" font-family="SourceCodePro-Regular" font-size="36.0" fill="#FEFFFF" transform="matrix(1.00, 0.00, -0.00, -1.00, 215.4, 349.0)">&lt;</text><text xml:space="preserve" font-family="SourceCodePro-Regular" font-size="36.0" fill="#FF2600" transform="matrix(1.00, 0.00, -0.00, -1.00, 237.0, 349.0)">t</text><text xml:space="preserve" font-family="SourceCodePro-Regular" font-size="36.0" fill="#FF2600" transform="matrix(1.00, 0.00, -0.00, -1.00, 258.6, 349.0)">h</text><text xml:space="preserve" font-family="SourceCodePro-Regular" font-size="36.0" fill="#FF2600" transform="matrix(1.00, 0.00, -0.00, -1.00, 280.2, 349.0)">e</text><text xml:space="preserve" font-family="SourceCodePro-Regular" font-size="36.0" fill="#FF2600" transform="matrix(1.00, 0.00, -0.00, -1.00, 301.8, 349.0)">-</text><text xml:space="preserve" font-family="SourceCodePro-Regular" font-size="36.0" fill="#FF2600" transform="matrix(1.00, 0.00, -0.00, -1.00, 323.4, 349.0)">t</text><text xml:space="preserve" font-family="SourceCodePro-Regular" font-size="36.0" fill="#FF2600" transform="matrix(1.00, 0.00, -0.00, -1.00, 345.0, 349.0)">i</text><text xml:space="preserve" font-family="SourceCodePro-Regular" font-size="36.0" fill="#FF2600" transform="matrix(1.00, 0.00, -0.00, -1.00, 366.6, 349.0)">t</text><text xml:space="preserve" font-family="SourceCodePro-Regular" font-size="36.0" fill="#FF2600" transform="matrix(1.00, 0.00, -0.00, -1.00, 388.2, 349.0)">l</text><text xml:space="preserve" font-family="SourceCodePro-Regular" font-size="36.0" fill="#FF2600" transform="matrix(1.00, 0.00, -0.00, -1.00, 409.8, 349.0)">e</text><text xml:space="preserve" font-family="SourceCodePro-Regular" font-size="36.0" fill="#FEFFFF" transform="matrix(1.00, 0.00, -0.00, -1.00, 431.4, 349.0)">&gt;</text><text xml:space="preserve" font-family="SourceCodePro-Regular" font-size="36.0" fill="#FEFFFF" transform="matrix(1.00, 0.00, -0.00, -1.00, 453.0, 349.0)">&lt;</text><text xml:space="preserve" font-family="SourceCodePro-Regular" font-size="36.0" fill="#FEFFFF" transform="matrix(1.00, 0.00, -0.00, -1.00, 474.6, 349.0)">/</text><text xml:space="preserve" font-family="SourceCodePro-Regular" font-size="36.0" fill="#FF2600" transform="matrix(1.00, 0.00, -0.00, -1.00, 496.2, 349.0)">t</text><text xml:space="preserve" font-family="SourceCodePro-Regular" font-size="36.0" fill="#FF2600" transform="matrix(1.00, 0.00, -0.00, -1.00, 517.8, 349.0)">h</text><text xml:space="preserve" font-family="SourceCodePro-Regular" font-size="36.0" fill="#FF2600" transform="matrix(1.00, 0.00, -0.00, -1.00, 539.4, 349.0)">e</text><text xml:space="preserve" font-family="SourceCodePro-Regular" font-size="36.0" fill="#FF2600" transform="matrix(1.00, 0.00, -0.00, -1.00, 561.0, 349.0)">-</text><text xml:space="preserve" font-family="SourceCodePro-Regular" font-size="36.0" fill="#FF2600" transform="matrix(1.00, 0.00, -0.00, -1.00, 582.6, 349.0)">t</text><text xml:space="preserve" font-family="SourceCodePro-Regular" font-size="36.0" fill="#FF2600" transform="matrix(1.00, 0.00, -0.00, -1.00, 604.2, 349.0)">i</text><text xml:space="preserve" font-family="SourceCodePro-Regular" font-size="36.0" fill="#FF2600" transform="matrix(1.00, 0.00, -0.00, -1.00, 625.8, 349.0)">t</text><text xml:space="preserve" font-family="SourceCodePro-Regular" font-size="36.0" fill="#FF2600" transform="matrix(1.00, 0.00, -0.00, -1.00, 647.4, 349.0)">l</text><text xml:space="preserve" font-family="SourceCodePro-Regular" font-size="36.0" fill="#FF2600" transform="matrix(1.00, 0.00, -0.00, -1.00, 669.0, 349.0)">e</text><text xml:space="preserve" font-family="SourceCodePro-Regular" font-size="36.0" fill="#FEFFFF" transform="matrix(1.00, 0.00, -0.00, -1.00, 690.6, 349.0)">&gt;</text><text xml:space="preserve" font-family="SourceCodePro-Regular" font-size="36.0" fill="#FEFFFF" transform="matrix(1.00, 0.00, -0.00, -1.00, 712.2, 349.0)">&lt;</text><text xml:space="preserve" font-family="SourceCodePro-Regular" font-size="36.0" fill="#FEFFFF" transform="matrix(1.00, 0.00, -0.00, -1.00, 733.8, 349.0)">/</text><text xml:space="preserve" font-family="SourceCodePro-Regular" font-size="36.0" fill="#FEFFFF" transform="matrix(1.00, 0.00, -0.00, -1.00, 755.4, 349.0)">h</text><text xml:space="preserve" font-family="SourceCodePro-Regular" font-size="36.0" fill="#FEFFFF" transform="matrix(1.00, 0.00, -0.00, -1.00, 777.0, 349.0)">1</text><text xml:space="preserve" font-family="SourceCodePro-Regular" font-size="36.0" fill="#FEFFFF" transform="matrix(1.00, 0.00, -0.00, -1.00, 798.6, 349.0)">&gt;</text><text xml:space="preserve" font-family="SourceCodePro-Regular" font-size="36.0" fill="#FEFFFF" transform="matrix(1.00, 0.00, -0.00, -1.00, 820.2, 349.0)"> </text><text xml:space="preserve" font-family="SourceCodePro-Regular" font-size="36.0" fill="#FEFFFF" transform="matrix(1.00, 0.00, -0.00, -1.00, 21.0, 304.0)"> </text><text xml:space="preserve" font-family="SourceCodePro-Regular" font-size="36.0" fill="#FEFFFF" transform="matrix(1.00, 0.00, -0.00, -1.00, 42.6, 304.0)"> </text><text xml:space="preserve" font-family="SourceCodePro-Regular" font-size="36.0" fill="#FEFFFF" transform="matrix(1.00, 0.00, -0.00, -1.00, 64.2, 304.0)"> </text><text xml:space="preserve" font-family="SourceCodePro-Regular" font-size="36.0" fill="#FEFFFF" transform="matrix(1.00, 0.00, -0.00, -1.00, 85.8, 304.0)"> </text><text xml:space="preserve" font-family="SourceCodePro-Regular" font-size="36.0" fill="#FEFFFF" transform="matrix(1.00, 0.00, -0.00, -1.00, 107.4, 304.0)"> </text><text xml:space="preserve" font-family="SourceCodePro-Regular" font-size="36.0" fill="#FEFFFF" transform="matrix(1.00, 0.00, -0.00, -1.00, 129.0, 304.0)">&lt;</text><text xml:space="preserve" font-family="SourceCodePro-Regular" font-size="36.0" fill="#FF2600" transform="matrix(1.00, 0.00, -0.00, -1.00, 150.6, 304.0)">t</text><text xml:space="preserve" font-family="SourceCodePro-Regular" font-size="36.0" fill="#FF2600" transform="matrix(1.00, 0.00, -0.00, -1.00, 172.2, 304.0)">h</text><text xml:space="preserve" font-family="SourceCodePro-Regular" font-size="36.0" fill="#FF2600" transform="matrix(1.00, 0.00, -0.00, -1.00, 193.8, 304.0)">e</text><text xml:space="preserve" font-family="SourceCodePro-Regular" font-size="36.0" fill="#FF2600" transform="matrix(1.00, 0.00, -0.00, -1.00, 215.4, 304.0)">-</text><text xml:space="preserve" font-family="SourceCodePro-Regular" font-size="36.0" fill="#FF2600" transform="matrix(1.00, 0.00, -0.00, -1.00, 237.0, 304.0)">c</text><text xml:space="preserve" font-family="SourceCodePro-Regular" font-size="36.0" fill="#FF2600" transform="matrix(1.00, 0.00, -0.00, -1.00, 258.6, 304.0)">o</text><text xml:space="preserve" font-family="SourceCodePro-Regular" font-size="36.0" fill="#FF2600" transform="matrix(1.00, 0.00, -0.00, -1.00, 280.2, 304.0)">n</text><text xml:space="preserve" font-family="SourceCodePro-Regular" font-size="36.0" fill="#FF2600" transform="matrix(1.00, 0.00, -0.00, -1.00, 301.8, 304.0)">t</text><text xml:space="preserve" font-family="SourceCodePro-Regular" font-size="36.0" fill="#FF2600" transform="matrix(1.00, 0.00, -0.00, -1.00, 323.4, 304.0)">e</text><text xml:space="preserve" font-family="SourceCodePro-Regular" font-size="36.0" fill="#FF2600" transform="matrix(1.00, 0.00, -0.00, -1.00, 345.0, 304.0)">n</text><text xml:space="preserve" font-family="SourceCodePro-Regular" font-size="36.0" fill="#FF2600" transform="matrix(1.00, 0.00, -0.00, -1.00, 366.6, 304.0)">t</text><text xml:space="preserve" font-family="SourceCodePro-Regular" font-size="36.0" fill="#FEFFFF" transform="matrix(1.00, 0.00, -0.00, -1.00, 388.2, 304.0)">&gt;</text><text xml:space="preserve" font-family="SourceCodePro-Regular" font-size="36.0" fill="#FEFFFF" transform="matrix(1.00, 0.00, -0.00, -1.00, 409.8, 304.0)">&lt;</text><text xml:space="preserve" font-family="SourceCodePro-Regular" font-size="36.0" fill="#FEFFFF" transform="matrix(1.00, 0.00, -0.00, -1.00, 431.4, 304.0)">/</text><text xml:space="preserve" font-family="SourceCodePro-Regular" font-size="36.0" fill="#FF2600" transform="matrix(1.00, 0.00, -0.00, -1.00, 453.0, 304.0)">t</text><text xml:space="preserve" font-family="SourceCodePro-Regular" font-size="36.0" fill="#FF2600" transform="matrix(1.00, 0.00, -0.00, -1.00, 474.6, 304.0)">h</text><text xml:space="preserve" font-family="SourceCodePro-Regular" font-size="36.0" fill="#FF2600" transform="matrix(1.00, 0.00, -0.00, -1.00, 496.2, 304.0)">e</text><text xml:space="preserve" font-family="SourceCodePro-Regular" font-size="36.0" fill="#FF2600" transform="matrix(1.00, 0.00, -0.00, -1.00, 517.8, 304.0)">-</text><text xml:space="preserve" font-family="SourceCodePro-Regular" font-size="36.0" fill="#FF2600" transform="matrix(1.00, 0.00, -0.00, -1.00, 539.4, 304.0)">c</text><text xml:space="preserve" font-family="SourceCodePro-Regular" font-size="36.0" fill="#FF2600" transform="matrix(1.00, 0.00, -0.00, -1.00, 561.0, 304.0)">o</text><text xml:space="preserve" font-family="SourceCodePro-Regular" font-size="36.0" fill="#FF2600" transform="matrix(1.00, 0.00, -0.00, -1.00, 582.6, 304.0)">n</text><text xml:space="preserve" font-family="SourceCodePro-Regular" font-size="36.0" fill="#FF2600" transform="matrix(1.00, 0.00, -0.00, -1.00, 604.2, 304.0)">t</text><text xml:space="preserve" font-family="SourceCodePro-Regular" font-size="36.0" fill="#FF2600" transform="matrix(1.00, 0.00, -0.00, -1.00, 625.8, 304.0)">e</text><text xml:space="preserve" font-family="SourceCodePro-Regular" font-size="36.0" fill="#FF2600" transform="matrix(1.00, 0.00, -0.00, -1.00, 647.4, 304.0)">n</text><text xml:space="preserve" font-family="SourceCodePro-Regular" font-size="36.0" fill="#FF2600" transform="matrix(1.00, 0.00, -0.00, -1.00, 669.0, 304.0)">t</text><text xml:space="preserve" font-family="SourceCodePro-Regular" font-size="36.0" fill="#FEFFFF" transform="matrix(1.00, 0.00, -0.00, -1.00, 690.6, 304.0)">&gt;</text><text xml:space="preserve" font-family="SourceCodePro-Regular" font-size="36.0" fill="#FEFFFF" transform="matrix(1.00, 0.00, -0.00, -1.00, 712.2, 304.0)"> </text><text xml:space="preserve" font-family="SourceCodePro-Regular" font-size="36.0" fill="#FEFFFF" transform="matrix(1.00, 0.00, -0.00, -1.00, 21.0, 259.0)"> </text><text xml:space="preserve" font-family="SourceCodePro-Regular" font-size="36.0" fill="#FEFFFF" transform="matrix(1.00, 0.00, -0.00, -1.00, 42.6, 259.0)"> </text><text xml:space="preserve" font-family="SourceCodePro-Regular" font-size="36.0" fill="#FEFFFF" transform="matrix(1.00, 0.00, -0.00, -1.00, 64.2, 259.0)">&lt;</text><text xml:space="preserve" font-family="SourceCodePro-Regular" font-size="36.0" fill="#FEFFFF" transform="matrix(1.00, 0.00, -0.00, -1.00, 85.8, 259.0)">/</text><text xml:space="preserve" font-family="SourceCodePro-Regular" font-size="36.0" fill="#FF2600" transform="matrix(1.00, 0.00, -0.00, -1.00, 107.4, 259.0)">h</text><text xml:space="preserve" font-family="SourceCodePro-Regular" font-size="36.0" fill="#FF2600" transform="matrix(1.00, 0.00, -0.00, -1.00, 129.0, 259.0)">a</text><text xml:space="preserve" font-family="SourceCodePro-Regular" font-size="36.0" fill="#FF2600" transform="matrix(1.00, 0.00, -0.00, -1.00, 150.6, 259.0)">v</text><text xml:space="preserve" font-family="SourceCodePro-Regular" font-size="36.0" fill="#FF2600" transform="matrix(1.00, 0.00, -0.00, -1.00, 172.2, 259.0)">e</text><text xml:space="preserve" font-family="SourceCodePro-Regular" font-size="36.0" fill="#FF2600" transform="matrix(1.00, 0.00, -0.00, -1.00, 193.8, 259.0)">-</text><text xml:space="preserve" font-family="SourceCodePro-Regular" font-size="36.0" fill="#FF2600" transform="matrix(1.00, 0.00, -0.00, -1.00, 215.4, 259.0)">p</text><text xml:space="preserve" font-family="SourceCodePro-Regular" font-size="36.0" fill="#FF2600" transform="matrix(1.00, 0.00, -0.00, -1.00, 237.0, 259.0)">o</text><text xml:space="preserve" font-family="SourceCodePro-Regular" font-size="36.0" fill="#FF2600" transform="matrix(1.00, 0.00, -0.00, -1.00, 258.6, 259.0)">s</text><text xml:space="preserve" font-family="SourceCodePro-Regular" font-size="36.0" fill="#FF2600" transform="matrix(1.00, 0.00, -0.00, -1.00, 280.2, 259.0)">t</text><text xml:space="preserve" font-family="SourceCodePro-Regular" font-size="36.0" fill="#FF2600" transform="matrix(1.00, 0.00, -0.00, -1.00, 301.8, 259.0)">s</text><text xml:space="preserve" font-family="SourceCodePro-Regular" font-size="36.0" fill="#FEFFFF" transform="matrix(1.00, 0.00, -0.00, -1.00, 323.4, 259.0)">&gt;</text><text xml:space="preserve" font-family="SourceCodePro-Regular" font-size="36.0" fill="#FEFFFF" transform="matrix(1.00, 0.00, -0.00, -1.00, 345.0, 259.0)"> </text><text xml:space="preserve" font-family="SourceCodePro-Regular" font-size="36.0" fill="#FEFFFF" transform="matrix(1.00, 0.00, -0.00, -1.00, 21.0, 214.0)">&lt;</text><text xml:space="preserve" font-family="SourceCodePro-Regular" font-size="36.0" fill="#FEFFFF" transform="matrix(1.00, 0.00, -0.00, -1.00, 42.6, 214.0)">/</text><text xml:space="preserve" font-family="SourceCodePro-Regular" font-size="36.0" fill="#FEFFFF" transform="matrix(1.00, 0.00, -0.00, -1.00, 64.2, 214.0)">b</text><text xml:space="preserve" font-family="SourceCodePro-Regular" font-size="36.0" fill="#FEFFFF" transform="matrix(1.00, 0.00, -0.00, -1.00, 85.8, 214.0)">o</text><text xml:space="preserve" font-family="SourceCodePro-Regular" font-size="36.0" fill="#FEFFFF" transform="matrix(1.00, 0.00, -0.00, -1.00, 107.4, 214.0)">d</text><text xml:space="preserve" font-family="SourceCodePro-Regular" font-size="36.0" fill="#FEFFFF" transform="matrix(1.00, 0.00, -0.00, -1.00, 129.0, 214.0)">y</text><text xml:space="preserve" font-family="SourceCodePro-Regular" font-size="36.0" fill="#FEFFFF" transform="matrix(1.00, 0.00, -0.00, -1.00, 150.6, 214.0)">&gt;</text></g></svg>